<?xml version="1.0" standalone="no"?>
<!DOCTYPE svg PUBLIC "-//W3C//DTD SVG 20010904//EN"
 "http://www.w3.org/TR/2001/REC-SVG-20010904/DTD/svg10.dtd">
<svg version="1.0" xmlns="http://www.w3.org/2000/svg"
 width="286.000000pt" height="286.000000pt" viewBox="0 0 286.000000 286.000000"
 preserveAspectRatio="xMidYMid meet">
<metadata>
Created by potrace 1.14, written by Peter Selinger 2001-2017
</metadata>
<g transform="translate(0.000000,286.000000) scale(0.100000,-0.100000)"
fill="#000000" stroke="none">
<path d="M160 1435 l0 -1265 1265 0 1265 0 0 1265 0 1265 -1265 0 -1265 0 0
-1265z m808 1223 c9 -9 12 -109 12 -390 0 -363 -1 -378 -19 -388 -27 -14 -735
-14 -762 0 -18 10 -19 25 -19 388 0 281 3 381 12 390 17 17 759 17 776 0z
m840 0 c17 -17 17 -759 0 -776 -17 -17 -759 -17 -776 0 -17 17 -17 759 0 776
17 17 759 17 776 0z m840 0 c17 -17 17 -759 0 -776 -16 -16 -739 -17 -769 -2
-18 10 -19 25 -19 388 0 281 3 381 12 390 17 17 759 17 776 0z m-1680 -840
c17 -17 17 -759 0 -776 -16 -16 -739 -17 -769 -2 -18 10 -19 25 -19 388 0 281
3 381 12 390 17 17 759 17 776 0z m840 0 c9 -9 12 -109 12 -390 0 -363 -1
-378 -19 -388 -27 -14 -735 -14 -762 0 -18 10 -19 25 -19 388 0 281 3 381 12
390 17 17 759 17 776 0z m840 0 c9 -9 12 -109 12 -390 0 -363 -1 -378 -19
-388 -27 -14 -735 -14 -762 0 -18 10 -19 25 -19 388 0 281 3 381 12 390 17 17
759 17 776 0z m-1680 -840 c9 -9 12 -109 12 -390 0 -363 -1 -378 -19 -388 -30
-15 -753 -14 -769 2 -17 17 -17 759 0 776 17 17 759 17 776 0z m840 0 c17 -17
17 -759 0 -776 -17 -17 -759 -17 -776 0 -17 17 -17 759 0 776 17 17 759 17
776 0z m840 0 c17 -17 17 -759 0 -776 -16 -16 -739 -17 -769 -2 -18 10 -19 25
-19 388 0 281 3 381 12 390 17 17 759 17 776 0z"/>
<path d="M450 2241 c0 -124 1 -131 20 -131 19 0 20 7 21 108 l1 107 34 -107
c46 -143 57 -143 106 -5 l37 102 0 -102 c1 -96 2 -103 21 -103 19 0 20 7 20
130 l0 130 -28 0 c-26 0 -30 -5 -62 -100 -19 -55 -38 -100 -41 -100 -3 0 -18
44 -35 98 -29 95 -30 97 -62 100 l-32 3 0 -130z"/>
<path d="M1280 2239 l0 -131 79 3 c92 5 121 22 121 74 0 47 -29 68 -100 73
l-60 4 0 54 c0 47 -2 54 -20 54 -19 0 -20 -7 -20 -131z m153 -28 c5 -5 7 -19
5 -32 -2 -19 -12 -26 -45 -33 -57 -12 -73 -4 -73 37 0 19 3 37 8 41 9 10 93
-1 105 -13z"/>
<path d="M1520 2240 c0 -123 1 -130 20 -130 19 0 20 7 20 130 0 123 -1 130
-20 130 -19 0 -20 -7 -20 -130z"/>
<path d="M2195 2358 c-28 -16 -35 -28 -35 -64 0 -33 14 -55 45 -72 11 -6 15
-12 8 -12 -6 0 -25 -22 -42 -50 l-31 -50 24 0 c18 0 32 13 55 49 30 47 68 70
91 56 6 -4 10 -28 10 -56 0 -42 3 -49 20 -49 19 0 20 7 20 130 l0 130 -72 0
c-40 0 -82 -6 -93 -12z m123 -65 l3 -43 -45 0 c-62 0 -76 7 -76 41 0 35 26 49
80 46 34 -2 35 -4 38 -44z"/>
<path d="M523 1510 c-42 -25 -53 -48 -53 -114 0 -47 4 -61 29 -88 26 -29 36
-33 79 -33 58 0 94 26 113 82 37 114 -70 213 -168 153z m112 -41 c28 -28 27
-112 -3 -141 -29 -29 -80 -28 -104 1 -20 26 -25 100 -7 132 22 41 75 45 114 8z"/>
<path d="M1374 1511 c-76 -46 -70 -190 9 -227 46 -22 99 -12 127 23 11 15 19
33 18 42 -5 25 -27 24 -38 -3 -23 -62 -113 -49 -126 19 -11 60 3 105 38 119
39 17 67 10 80 -20 12 -26 16 -28 37 -15 12 8 12 13 -3 36 -31 47 -90 58 -142
26z"/>
<path d="M2285 1620 c-76 -8 -103 -23 -121 -65 -20 -48 -18 -178 2 -221 33
-70 115 -85 169 -31 61 61 57 168 -8 207 -41 25 -74 25 -116 -1 l-33 -20 6 28
c11 44 30 56 98 61 65 5 88 14 88 38 0 8 -6 13 -12 13 -7 -1 -40 -5 -73 -9z
m20 -142 c67 -59 22 -193 -59 -172 -70 17 -74 147 -6 181 33 17 35 17 65 -9z"/>
<path d="M510 560 c0 -123 1 -130 20 -130 18 0 20 7 20 65 0 60 2 65 18 56 9
-5 31 -34 47 -65 19 -35 37 -56 48 -56 9 0 17 3 17 8 0 15 -62 113 -75 118
-10 4 -8 13 11 41 13 20 24 39 24 44 0 4 9 11 20 14 25 8 27 35 3 35 -29 0
-40 -12 -62 -63 -29 -67 -51 -63 -51 8 0 48 -2 55 -20 55 -19 0 -20 -7 -20
-130z"/>
<path d="M1374 680 c-42 -17 -64 -58 -64 -121 0 -50 4 -63 28 -89 55 -62 156
-46 186 31 9 22 16 48 16 59 0 11 -7 37 -16 59 -23 58 -90 85 -150 61z m101
-51 c28 -28 27 -112 -3 -141 -29 -29 -80 -28 -104 1 -21 27 -25 109 -5 133 32
41 74 43 112 7z"/>
<path d="M2170 579 c0 -102 -2 -111 -20 -116 -28 -7 -25 -33 3 -33 48 0 56 18
59 125 l3 100 55 0 55 0 3 -112 c2 -105 4 -113 22 -113 19 0 20 7 20 130 l0
130 -100 0 -100 0 0 -111z"/>
</g>
</svg>
